<?xml version="1.0" encoding="UTF-8" standalone="no"?>
<svg
   version="1.1"
   width="20"
   height="20"
   viewBox="0 0 20 20"
   id="svg4"
   sodipodi:docname="steam.svg"
   inkscape:version="1.1 (c68e22c387, 2021-05-23)"
   xmlns:inkscape="http://www.inkscape.org/namespaces/inkscape"
   xmlns:sodipodi="http://sodipodi.sourceforge.net/DTD/sodipodi-0.dtd"
   xmlns="http://www.w3.org/2000/svg"
   xmlns:svg="http://www.w3.org/2000/svg">
  <defs
     id="defs8" />
  <sodipodi:namedview
     id="namedview6"
     pagecolor="#ffffff"
     bordercolor="#111111"
     borderopacity="1"
     inkscape:pageshadow="0"
     inkscape:pageopacity="0"
     inkscape:pagecheckerboard="1"
     showgrid="false"
     fit-margin-top="0"
     fit-margin-left="0"
     fit-margin-right="0"
     fit-margin-bottom="0"
     inkscape:zoom="36.375"
     inkscape:cx="9.9931271"
     inkscape:cy="9.9931271"
     inkscape:window-width="1920"
     inkscape:window-height="1137"
     inkscape:window-x="1912"
     inkscape:window-y="-8"
     inkscape:window-maximized="1"
     inkscape:current-layer="svg4" />
  <path
     d="M 10,0 A 10,10 0 0 1 20,10 10,10 0 0 1 10,20 C 5.4,20 1.55,16.92 0.36,12.73 l 3.83,1.58 c 0.26,1.29 1.41,2.27 2.78,2.27 1.56,0 2.83,-1.27 2.83,-2.83 v -0.13 l 3.4,-2.43 h 0.08 c 2.08,0 3.77,-1.69 3.77,-3.77 0,-2.08 -1.69,-3.77 -3.77,-3.77 C 11.2,3.65 9.5,5.34 9.5,7.42 V 7.47 L 7.13,10.93 6.97,10.92 c -0.59,0 -1.14,0.18 -1.59,0.49 L 0,9.2 C 0.43,4.05 4.73,0 10,0 M 6.28,15.17 C 7.08,15.5 8,15.13 8.33,14.33 8.66,13.53 8.28,12.62 7.5,12.29 L 6.22,11.76 c 0.49,-0.18 1.04,-0.19 1.56,0.03 0.53,0.21 0.94,0.62 1.15,1.15 0.22,0.52 0.22,1.1 0,1.62 -0.43,1.08 -1.7,1.6 -2.78,1.15 C 5.65,15.5 5.27,15.12 5.06,14.67 l 1.22,0.5 M 15.8,7.42 c 0,1.39 -1.13,2.52 -2.52,2.52 -1.38,0 -2.51,-1.13 -2.51,-2.52 a 2.5,2.5 0 0 1 2.51,-2.51 c 1.39,0 2.52,1.13 2.52,2.51 m -4.4,0 c 0,1.04 0.84,1.89 1.89,1.89 1.04,0 1.88,-0.85 1.88,-1.89 0,-1.04 -0.84,-1.89 -1.88,-1.89 -1.05,0 -1.89,0.85 -1.89,1.89 z"
     id="path2" />
</svg>
