<?xml version="1.0" standalone="no"?>
<!DOCTYPE svg PUBLIC "-//W3C//DTD SVG 20010904//EN"
 "http://www.w3.org/TR/2001/REC-SVG-20010904/DTD/svg10.dtd">
<svg version="1.0" xmlns="http://www.w3.org/2000/svg"
 width="160.000000pt" height="160.000000pt" viewBox="0 0 160.000000 160.000000"
 preserveAspectRatio="xMidYMid meet">
<metadata>
Created by potrace 1.11, written by Peter Selinger 2001-2013
</metadata>
<g transform="translate(0.000000,160.000000) scale(0.100000,-0.100000)"
fill="#000000" stroke="none">
<path d="M0 800 l0 -800 800 0 800 0 0 800 0 800 -800 0 -800 0 0 -800z m713
685 c-2 -15 -205 -85 -220 -76 -10 5 6 16 49 34 35 14 79 33 98 41 38 16 76
17 73 1z m-19 -368 c18 -25 19 -31 7 -65 -8 -20 -33 -69 -57 -107 -61 -99
-147 -284 -179 -385 -21 -68 -27 -111 -31 -215 -3 -71 -7 -155 -11 -185 l-5
-55 -38 148 c-28 108 -42 189 -50 294 l-12 145 31 43 c20 28 29 50 25 62 -3
10 10 0 30 -22 21 -22 32 -30 27 -18 -12 24 -83 98 -103 107 -10 5 -10 7 -1
12 22 10 194 127 265 179 56 42 66 54 62 73 -6 31 13 25 40 -11z m-515 -166
c1 -35 7 -61 17 -72 15 -17 15 -19 -1 -35 -31 -31 -111 -221 -103 -245 2 -6
18 28 36 75 18 47 35 86 37 86 2 0 9 -18 15 -40 9 -33 6 -56 -15 -139 -17 -68
-27 -140 -30 -223 -3 -68 -8 -147 -11 -177 l-6 -54 -39 153 -39 154 15 170
c15 176 33 260 82 375 31 72 41 65 42 -28z m1272 -233 c0 -2 6 -42 13 -90 10
-71 10 -88 -1 -88 -18 0 -30 28 -38 94 l-7 58 -51 -7 c-619 -83 -723 -97 -731
-105 -4 -5 8 -54 28 -110 20 -55 36 -111 36 -123 0 -13 7 -32 15 -44 26 -37
46 -104 36 -121 -7 -13 -10 -11 -16 9 -4 13 -17 51 -30 84 -64 168 -125 338
-123 341 2 1 138 19 303 39 165 20 345 42 400 49 97 13 164 19 166 14z m-61
-84 c12 -19 19 -38 15 -42 -4 -4 -10 -1 -12 6 -7 18 -30 15 -42 -5 -5 -10 -12
-15 -16 -11 -9 8 13 88 25 88 4 0 18 -16 30 -36z m-120 -8 c0 -13 3 -31 6 -40
3 -9 1 -16 -4 -16 -6 0 -13 8 -15 18 -4 14 -6 14 -12 -5 -8 -25 -21 -30 -28
-10 -3 7 -6 5 -6 -5 -1 -28 -20 -21 -27 10 -10 47 -14 53 -25 47 -6 -4 -9 -23
-7 -44 2 -20 -2 -36 -7 -35 -10 1 -26 73 -20 84 2 3 19 7 38 8 27 2 36 -3 47
-23 18 -33 26 -32 34 5 7 36 26 40 26 6z m-218 -23 c35 -31 10 -81 -42 -82
-14 0 -38 -3 -55 -6 -73 -13 -79 -12 -85 20 -3 17 -11 30 -18 29 -6 -1 -19 -2
-27 -2 -21 -3 -19 -32 3 -32 14 0 15 -2 2 -10 -12 -8 -10 -10 8 -10 13 0 21
-4 18 -9 -7 -11 -86 -19 -86 -9 0 5 -11 8 -25 8 -16 0 -25 -6 -25 -15 0 -16
-16 -21 -23 -7 -2 4 -7 24 -11 45 -6 30 -4 37 9 37 8 0 15 -8 15 -18 0 -25 7
-31 31 -25 16 4 19 11 15 29 -9 36 10 29 22 -8 l11 -33 -6 38 c-5 36 -4 37 26
39 76 4 76 4 81 -27 3 -18 12 -31 24 -33 16 -3 17 1 11 37 -8 49 10 57 23 9 4
-17 14 -34 21 -36 10 -3 12 2 7 22 -5 19 -1 31 14 46 24 24 38 25 62 3z m368
-49 c0 -9 -14 -41 -31 -70 l-30 -54 -59 45 c-32 25 -63 45 -68 45 -9 0 -42
-43 -42 -54 0 -2 31 -27 68 -54 66 -48 69 -52 80 -108 7 -32 9 -61 5 -64 -5
-4 -33 -14 -63 -23 -30 -9 -134 -39 -230 -67 -96 -28 -188 -56 -204 -61 -16
-5 -30 -8 -31 -7 0 2 -6 15 -13 31 l-12 27 44 0 c36 0 48 5 65 26 38 49 20 89
-60 129 -51 26 -63 51 -34 75 14 12 32 11 80 -5 17 -5 23 0 34 30 10 30 10 39
-1 52 -11 14 -11 15 2 11 10 -3 23 -46 41 -141 14 -75 28 -140 32 -143 3 -4
22 -3 42 0 l37 7 -7 58 -7 57 42 13 c57 17 90 51 90 94 0 38 -37 87 -66 87
-41 0 5 16 134 46 166 38 162 38 162 18z m74 -169 c9 -65 16 -122 16 -126 0
-4 -10 -9 -22 -11 -13 -3 -173 -51 -357 -107 -184 -56 -336 -99 -338 -97 -2 2
-13 27 -24 56 -23 61 -5 66 24 7 21 -44 -12 -49 304 44 128 38 250 72 270 75
49 8 103 33 103 49 0 6 -5 49 -11 94 -9 63 -8 89 1 112 7 16 14 28 16 27 1 -2
10 -57 18 -123z m-46 -116 c-10 -6 -17 7 -27 50 -12 51 -12 64 0 93 l14 33 13
-84 c10 -69 10 -86 0 -92z m-341 135 c9 -24 -10 -49 -41 -52 -20 -3 -26 1 -26
17 0 10 -3 26 -6 35 -5 13 1 16 30 16 25 0 39 -5 43 -16z m-387 2 c0 -3 -4 -8
-10 -11 -5 -3 -10 -1 -10 4 0 6 5 11 10 11 6 0 10 -2 10 -4z m115 -187 c10
-16 -1 -22 -27 -15 -33 9 -44 18 -53 44 l-7 23 40 -20 c23 -11 44 -26 47 -32z"/>
<path d="M997 576 c-7 -19 18 -40 39 -32 8 3 14 14 12 23 -4 22 -43 29 -51 9z"/>
</g>
</svg>
